<svg id="Logo" xmlns="http://www.w3.org/2000/svg" width="90" height="24" viewBox="0 0 90 24">
  <style>
        path {
            fill: black;
        }
        @media (prefers-color-scheme: dark) {
            path { fill: white; }
        }
  </style>
  <path id="_" data-name="®" d="M883.655,286.552v.61h.475a.316.316,0,0,0,.354-.313c0-.209-.153-.3-.346-.3Zm.411.866h-.411v.836h-.275v-1.943h.8a.542.542,0,0,1,.17,1.067l.459.875h-.314Zm-.072-1.58a1.438,1.438,0,1,0,1.394,1.444,1.388,1.388,0,0,0-1.394-1.444m0,3.114a1.677,1.677,0,1,1,1.669-1.67,1.64,1.64,0,0,1-1.669,1.67" transform="translate(-795.953 -285.171)"/>
  <path id="A" d="M723.625,281.466l-10.5,23.619h2.856l7.689-17.154L727.5,296.5h-5.549l-1.117,2.486h7.78l2.729,6.1H734.2Z" transform="translate(-644.205 -281.466)"/>
  <path id="E" d="M523.483,312.5v-7.813h11.632v-2.481H523.483v-7.219h11.86v-2.479H520.915v22.48h13.432l1.1-2.487Z" transform="translate(-471.824 -291.368)"/>
  <path id="S" d="M298.83,298.977c-3.22-.929-5.177-1.642-5.177-3.7s2.025-3.623,4.709-3.623a6.459,6.459,0,0,1,5.409,2.43l.515.669,1.953-1.789-.461-.561a9.157,9.157,0,0,0-7.415-3.232c-3.663,0-7.37,2.1-7.37,6.1,0,4.2,3.736,5.253,7.036,6.186,3.081.867,5.742,1.617,5.742,4.46,0,3.677-4.066,3.963-5.313,3.963a7.569,7.569,0,0,1-5.925-2.826l-.513-.619-1.974,1.735.456.576a10,10,0,0,0,7.957,3.624c2.769,0,4.882-.738,6.282-2.192a6.127,6.127,0,0,0,1.686-4.262c0-4.748-4.027-5.915-7.595-6.949" transform="translate(-264.767 -288.38)"/>
  <path id="A-2" data-name="A" d="M55.5,281.466,45,305.085h2.855l2.732-6.1h7.764L57.233,296.5H51.7l3.842-8.571,7.678,17.154H66.08Z" transform="translate(-44.999 -281.466)"/>
</svg>
